<svg xmlns="http://www.w3.org/2000/svg" xmlns:xlink="http://www.w3.org/1999/xlink" viewBox="0 0 512 512" width="512" height="512" preserveAspectRatio="xMidYMid meet" style="width: 100%; height: 100%; transform: translate3d(0px, 0px, 0px); content-visibility: visible;"><defs><clipPath id="__lottie_element_2"><rect width="512" height="512" x="0" y="0"/></clipPath><clipPath id="__lottie_element_4"><path d="M0,0 L24,0 L24,24 L0,24z"/></clipPath></defs><g clip-path="url(#__lottie_element_2)"><g clip-path="url(#__lottie_element_4)" transform="matrix(21.33333396911621,0,0,21.33333396911621,0,0)" opacity="1" style="display: block;"><g transform="matrix(1,0,0,1,0,0)" opacity="1" style="display: block;"><g opacity="1" transform="matrix(1,0,0,1,0,0)"><path fill="rgb(0,188,212)" fill-opacity="1" d=" M10.970000267028809,5.699999809265137 C9.380000114440918,4.199999809265137 8,3.619999885559082 7.369999885559082,4 C6.739999771118164,4.349999904632568 6.550000190734863,5.820000171661377 7.059999942779541,7.960000038146973 C7.853008270263672,7.797291278839111 8.654152870178223,7.677119731903076 9.460000038146973,7.599999904632568 C9.9399995803833,6.929999828338623 10.449999809265137,6.289999961853027 10.970000267028809,5.699999809265137 C10.970000267028809,5.699999809265137 10.970000267028809,5.699999809265137 10.970000267028809,5.699999809265137z M8.079999923706055,9.739999771118164 C8.079999923706055,9.739999771118164 8.380000114440918,9.229999542236328 8.380000114440918,9.229999542236328 C8.069999694824219,9.279999732971191 7.769999980926514,9.329999923706055 7.5,9.390000343322754 C7.570000171661377,9.670000076293945 7.679999828338623,9.960000038146973 7.789999961853027,10.25 C7.789999961853027,10.25 8.079999923706055,9.739999771118164 8.079999923706055,9.739999771118164 M13.029999732971191,18.299999237060547 C14.619999885559082,19.799999237060547 16,20.3799991607666 16.6200008392334,20 C17.260000228881836,19.649999618530273 17.450000762939453,18.18000030517578 16.940000534057617,16.040000915527344 C16.170000076293945,16.200000762939453 15.359999656677246,16.31999969482422 14.539999961853027,16.399999618530273 C14.0600004196167,17.06999969482422 13.550000190734863,17.709999084472656 13.029999732971191,18.299999237060547 M15.920000076293945,14.260000228881836 C15.920000076293945,14.260000228881836 15.619999885559082,14.770000457763672 15.619999885559082,14.770000457763672 C15.930000305175781,14.720000267028809 16.229999542236328,14.670000076293945 16.5,14.609999656677246 C16.43000030517578,14.329999923706055 16.31999969482422,14.039999961853027 16.209999084472656,13.75 C16.209999084472656,13.75 15.920000076293945,14.260000228881836 15.920000076293945,14.260000228881836 M6.920000076293945,12 C6.579999923706055,11.25 6.28000020980835,10.5 6.03000020980835,9.739999771118164 C3.930000066757202,10.369999885559082 2.75,11.270000457763672 2.75,12 C2.75,12.729999542236328 3.930000066757202,13.630000114440918 6.03000020980835,14.260000228881836 C6.28000020980835,13.5 6.579999923706055,12.75 6.920000076293945,12 M17.079999923706055,12 C17.420000076293945,12.75 17.719999313354492,13.5 17.969999313354492,14.260000228881836 C20.06999969482422,13.630000114440918 21.25,12.729999542236328 21.25,12 C21.25,11.270000457763672 20.06999969482422,10.369999885559082 17.969999313354492,9.739999771118164 C17.719999313354492,10.5 17.420000076293945,11.25 17.079999923706055,12 M17.3700008392334,2.690000057220459 C18.84000015258789,3.5299999713897705 19,5.739999771118164 18.3799991607666,8.319999694824219 C20.920000076293945,9.069999694824219 22.75,10.3100004196167 22.75,12 C22.75,13.6899995803833 20.920000076293945,14.930000305175781 18.3799991607666,15.680000305175781 C19,18.260000228881836 18.84000015258789,20.469999313354492 17.3700008392334,21.309999465942383 C15.90999984741211,22.149999618530273 13.920000076293945,21.190000534057617 12,19.360000610351562 C10.079999923706055,21.190000534057617 8.09000015258789,22.149999618530273 6.619999885559082,21.309999465942383 C5.159999847412109,20.469999313354492 5,18.260000228881836 5.619999885559082,15.680000305175781 C3.0799999237060547,14.930000305175781 1.25,13.6899995803833 1.25,12 C1.25,10.3100004196167 3.0799999237060547,9.069999694824219 5.619999885559082,8.319999694824219 C5,5.739999771118164 5.159999847412109,3.5299999713897705 6.619999885559082,2.690000057220459 C8.09000015258789,1.850000023841858 10.079999923706055,2.809999942779541 12,4.639999866485596 C13.920000076293945,2.809999942779541 15.90999984741211,1.850000023841858 17.3700008392334,2.690000057220459 M15.920000076293945,9.739999771118164 C15.920000076293945,9.739999771118164 16.209999084472656,10.25 16.209999084472656,10.25 C16.31999969482422,9.960000038146973 16.43000030517578,9.670000076293945 16.5,9.390000343322754 C16.229999542236328,9.329999923706055 15.930000305175781,9.279999732971191 15.619999885559082,9.229999542236328 C15.619999885559082,9.229999542236328 15.920000076293945,9.739999771118164 15.920000076293945,9.739999771118164 M16.6200008392334,4 C16,3.619999885559082 14.619999885559082,4.199999809265137 13.029999732971191,5.699999809265137 C13.550000190734863,6.289999961853027 14.0600004196167,6.929999828338623 14.539999961853027,7.599999904632568 C15.359999656677246,7.679999828338623 16.170000076293945,7.800000190734863 16.940000534057617,7.960000038146973 C17.450000762939453,5.820000171661377 17.260000228881836,4.349999904632568 16.6200008392334,4 M12,17.219999313354492 C12.1899995803833,17 12.390000343322754,16.770000457763672 12.59000015258789,16.5 C12.59000015258789,16.5 11.40999984741211,16.5 11.40999984741211,16.5 C11.609999656677246,16.770000457763672 11.8100004196167,17 12,17.219999313354492 M12,6.78000020980835 C11.8100004196167,7 11.609999656677246,7.230000019073486 11.40999984741211,7.5 C11.40999984741211,7.5 12.59000015258789,7.5 12.59000015258789,7.5 C12.390000343322754,7.230000019073486 12.1899995803833,7 12,6.78000020980835 M14.619999885559082,13.5 C14.619999885559082,13.5 15.430000305175781,12 15.430000305175781,12 C15.430000305175781,12 14.619999885559082,10.5 14.619999885559082,10.5 C14.319999694824219,9.970000267028809 14,9.5 13.710000038146973,9.029999732971191 C13.170000076293945,9 12.600000381469727,9 12,9 C11.399999618530273,9 10.829999923706055,9 10.289999961853027,9.029999732971191 C10,9.5 9.680000305175781,9.970000267028809 9.380000114440918,10.5 C9.380000114440918,10.5 8.569999694824219,12 8.569999694824219,12 C8.569999694824219,12 9.380000114440918,13.5 9.380000114440918,13.5 C9.680000305175781,14.029999732971191 10,14.5 10.289999961853027,14.970000267028809 C10.829999923706055,15 11.399999618530273,15 12,15 C12.600000381469727,15 13.170000076293945,15 13.710000038146973,14.970000267028809 C14,14.5 14.319999694824219,14.029999732971191 14.619999885559082,13.5 M8.079999923706055,14.260000228881836 C8.079999923706055,14.260000228881836 7.789999961853027,13.75 7.789999961853027,13.75 C7.679999828338623,14.039999961853027 7.570000171661377,14.329999923706055 7.5,14.609999656677246 C7.769999980926514,14.670000076293945 8.069999694824219,14.720000267028809 8.380000114440918,14.770000457763672 C8.380000114440918,14.770000457763672 8.079999923706055,14.260000228881836 8.079999923706055,14.260000228881836 M7.369999885559082,20 C8,20.3799991607666 9.380000114440918,19.799999237060547 10.970000267028809,18.299999237060547 C10.449999809265137,17.709999084472656 9.9399995803833,17.06999969482422 9.460000038146973,16.399999618530273 C8.654152870178223,16.322879791259766 7.853008270263672,16.202709197998047 7.059999942779541,16.040000915527344 C6.550000190734863,18.18000030517578 6.739999771118164,19.649999618530273 7.369999885559082,20 M12,10.109999656677246 C13.029999732971191,10.109999656677246 13.869999885559082,10.949999809265137 13.869999885559082,12 C13.869999885559082,13 13.029999732971191,13.850000381469727 12,13.850000381469727 C10.970000267028809,13.850000381469727 10.130000114440918,13 10.130000114440918,12 C10.130000114440918,10.949999809265137 10.970000267028809,10.109999656677246 12,10.109999656677246"/></g></g></g></g></svg>