<svg xmlns="http://www.w3.org/2000/svg" xmlns:xlink="http://www.w3.org/1999/xlink" viewBox="0 0 512 512" width="512" height="512" preserveAspectRatio="xMidYMid meet" style="width: 100%; height: 100%; transform: translate3d(0px, 0px, 0px); content-visibility: visible;"><defs><clipPath id="__lottie_element_2"><rect width="512" height="512" x="0" y="0"/></clipPath><clipPath id="__lottie_element_4"><path d="M0,0 L256,0 L256,256 L0,256z"/></clipPath></defs><g clip-path="url(#__lottie_element_2)"><g clip-path="url(#__lottie_element_4)" transform="matrix(2,0,0,2,0,0)" opacity="1" style="display: block;"><g transform="matrix(1,0,0,1,0,0)" opacity="1" style="display: block;"><g opacity="1" transform="matrix(1,0,0,1,0,0)"><g opacity="1" transform="matrix(1,0,0,1,0,0)"><path fill-rule="evenodd" fill="rgb(0,122,204)" fill-opacity="1" d=" M0,128 C0,128 0,256 0,256 C0,256 256,256 256,256 C256,256 256,0 256,0 C256,0 0,0 0,0 C0,0 0,128 0,128z"/></g><g opacity="1" transform="matrix(1,0,0,1,0,0)"><path fill-rule="evenodd" fill="rgb(255,255,255)" fill-opacity="1" d=" M206.56700134277344,118.10800170898438 C213.0679931640625,119.73400115966797 218.0260009765625,122.61799621582031 222.57699584960938,127.33200073242188 C224.9340057373047,129.8520050048828 228.42799377441406,134.44400024414062 228.71299743652344,135.54100036621094 C228.79299926757812,135.86599731445312 217.66000366210938,143.34300231933594 210.9149932861328,147.5279998779297 C210.67100524902344,147.6909942626953 209.69500732421875,146.63400268554688 208.59800720214844,145.00799560546875 C205.3070068359375,140.21400451660156 201.85299682617188,138.14100646972656 196.57000732421875,137.7760009765625 C188.80999755859375,137.2469940185547 183.81100463867188,141.31100463867188 183.8520050048828,148.0959930419922 C183.8520050048828,150.08799743652344 184.13600158691406,151.26600646972656 184.94900512695312,152.89199829101562 C186.656005859375,156.427001953125 189.8249969482422,158.5399932861328 199.781005859375,162.8470001220703 C218.10699462890625,170.7310028076172 225.94900512695312,175.9320068359375 230.8260040283203,183.32699584960938 C236.27099609375,191.57699584960938 237.49000549316406,204.74200439453125 233.79200744628906,214.53500366210938 C229.72900390625,225.18099975585938 219.65199279785156,232.4149932861328 205.468994140625,234.81199645996094 C201.08099365234375,235.58399963378906 190.6790008544922,235.46200561523438 185.96499633789062,234.60899353027344 C175.68499755859375,232.77999877929688 165.9320068359375,227.7010040283203 159.91799926757812,221.03700256347656 C157.56100463867188,218.43600463867188 152.968994140625,211.64999389648438 153.25399780273438,211.16200256347656 C153.37600708007812,211 154.4320068359375,210.35000610351562 155.61000061035156,209.65899658203125 C156.7480010986328,209.00900268554688 161.05599975585938,206.5290069580078 165.11900329589844,204.17300415039062 C165.11900329589844,204.17300415039062 172.4739990234375,199.906005859375 172.4739990234375,199.906005859375 C172.4739990234375,199.906005859375 174.01800537109375,202.1820068359375 174.01800537109375,202.1820068359375 C176.1719970703125,205.47300720214844 180.88499450683594,209.98399353027344 183.72999572753906,211.48699951171875 C191.89700317382812,215.7949981689453 203.11300659179688,215.18499755859375 208.63900756835938,210.2270050048828 C210.99600219726562,208.07400512695312 211.9709930419922,205.83900451660156 211.9709930419922,202.5469970703125 C211.9709930419922,199.58099365234375 211.60499572753906,198.281005859375 210.06100463867188,196.0469970703125 C208.0709991455078,193.20199584960938 204.0070037841797,190.8040008544922 192.46600341796875,185.8070068359375 C179.25999450683594,180.11700439453125 173.5709991455078,176.58200073242188 168.3699951171875,170.9739990234375 C165.36300659179688,167.7239990234375 162.51800537109375,162.52200317382812 161.33999633789062,158.1739959716797 C160.36500549316406,154.55799865722656 160.1199951171875,145.49600219726562 160.89300537109375,141.83900451660156 C163.61599731445312,129.07899475097656 173.24600219726562,120.18099975585938 187.14300537109375,117.53900146484375 C191.6529998779297,116.68599700927734 202.13699340820312,117.01100158691406 206.56700134277344,118.10900115966797 C206.56700134277344,118.10900115966797 206.56700134277344,118.10800170898438 206.56700134277344,118.10800170898438z M56.611000061035156,128.85000610351562 C56.611000061035156,128.85000610351562 56.529998779296875,139.33299255371094 56.529998779296875,139.33299255371094 C56.529998779296875,139.33299255371094 89.8499984741211,139.33299255371094 89.8499984741211,139.33299255371094 C89.8499984741211,139.33299255371094 89.8499984741211,234.01300048828125 89.8499984741211,234.01300048828125 C89.8499984741211,234.01300048828125 113.41999816894531,234.01300048828125 113.41999816894531,234.01300048828125 C113.41999816894531,234.01300048828125 113.41999816894531,139.33299255371094 113.41999816894531,139.33299255371094 C113.41999816894531,139.33299255371094 146.74000549316406,139.33299255371094 146.74000549316406,139.33299255371094 C146.74000549316406,139.33299255371094 146.74000549316406,129.05299377441406 146.74000549316406,129.05299377441406 C146.74000549316406,123.36299896240234 146.6179962158203,118.60900115966797 146.45599365234375,118.48699951171875 C146.33399963378906,118.32499694824219 126.05699920654297,118.24299621582031 101.4729995727539,118.28399658203125 C101.4729995727539,118.28399658203125 56.73400115966797,118.40599822998047 56.73400115966797,118.40599822998047 C56.73400115966797,118.40599822998047 56.61199951171875,128.8489990234375 56.61199951171875,128.8489990234375 C56.61199951171875,128.8489990234375 56.611000061035156,128.85000610351562 56.611000061035156,128.85000610351562z"/></g></g></g></g></g></svg>